<?xml version="1.0" encoding="UTF-8"?>
<svg width="52" height="52" viewBox="0 0 52 52" fill="none" xmlns="http://www.w3.org/2000/svg">
    <g filter="url(#filter0_dii_18057_2116)">
        <path
            d="M2 11C2 5.47715 6.47715 1 12 1H40C45.5229 1 50 5.47715 50 11V39C50 44.5229 45.5228 49 40 49H12C6.47715 49 2 44.5228 2 39V11Z"
            fill="white" />
        <path
            d="M2.5 11C2.5 5.75329 6.75329 1.5 12 1.5H40C45.2467 1.5 49.5 5.75329 49.5 11V39C49.5 44.2467 45.2467 48.5 40 48.5H12C6.75329 48.5 2.5 44.2467 2.5 39V11Z"
            stroke="#E4E7EC" />
        <path
            d="M23.5 21L28.5 26M28.5 21L23.5 26M23.9 32.2L25.36 34.1467C25.5771 34.4362 25.6857 34.5809 25.8188 34.6327C25.9353 34.678 26.0647 34.678 26.1812 34.6327C26.3143 34.5809 26.4229 34.4362 26.64 34.1467L28.1 32.2C28.3931 31.8091 28.5397 31.6137 28.7185 31.4645C28.9569 31.2656 29.2383 31.1248 29.5405 31.0535C29.7671 31 30.0114 31 30.5 31C31.8978 31 32.5967 31 33.1481 30.7716C33.8831 30.4672 34.4672 29.8831 34.7716 29.1481C35 28.5967 35 27.8978 35 26.5V20.8C35 19.1198 35 18.2798 34.673 17.638C34.3854 17.0735 33.9265 16.6146 33.362 16.327C32.7202 16 31.8802 16 30.2 16H21.8C20.1198 16 19.2798 16 18.638 16.327C18.0735 16.6146 17.6146 17.0735 17.327 17.638C17 18.2798 17 19.1198 17 20.8V26.5C17 27.8978 17 28.5967 17.2284 29.1481C17.5328 29.8831 18.1169 30.4672 18.8519 30.7716C19.4033 31 20.1022 31 21.5 31C21.9886 31 22.2329 31 22.4595 31.0535C22.7617 31.1248 23.0431 31.2656 23.2815 31.4645C23.4603 31.6137 23.6069 31.8091 23.9 32.2Z"
            stroke="#344054" stroke-width="2" stroke-linecap="round" stroke-linejoin="round" />
    </g>
    <defs>
        <filter id="filter0_dii_18057_2116" x="0" y="0" width="52" height="52" filterUnits="userSpaceOnUse"
            color-interpolation-filters="sRGB">
            <feFlood flood-opacity="0" result="BackgroundImageFix" />
            <feColorMatrix in="SourceAlpha" type="matrix" values="0 0 0 0 0 0 0 0 0 0 0 0 0 0 0 0 0 0 127 0"
                result="hardAlpha" />
            <feOffset dy="1" />
            <feGaussianBlur stdDeviation="1" />
            <feComposite in2="hardAlpha" operator="out" />
            <feColorMatrix type="matrix" values="0 0 0 0 0.0627451 0 0 0 0 0.0941176 0 0 0 0 0.156863 0 0 0 0.05 0" />
            <feBlend mode="normal" in2="BackgroundImageFix" result="effect1_dropShadow_18057_2116" />
            <feBlend mode="normal" in="SourceGraphic" in2="effect1_dropShadow_18057_2116" result="shape" />
            <feColorMatrix in="SourceAlpha" type="matrix" values="0 0 0 0 0 0 0 0 0 0 0 0 0 0 0 0 0 0 127 0"
                result="hardAlpha" />
            <feOffset dy="-2" />
            <feComposite in2="hardAlpha" operator="arithmetic" k2="-1" k3="1" />
            <feColorMatrix type="matrix" values="0 0 0 0 0.0627451 0 0 0 0 0.0941176 0 0 0 0 0.156863 0 0 0 0.05 0" />
            <feBlend mode="normal" in2="shape" result="effect2_innerShadow_18057_2116" />
            <feColorMatrix in="SourceAlpha" type="matrix" values="0 0 0 0 0 0 0 0 0 0 0 0 0 0 0 0 0 0 127 0"
                result="hardAlpha" />
            <feMorphology radius="1" operator="erode" in="SourceAlpha" result="effect3_innerShadow_18057_2116" />
            <feOffset />
            <feComposite in2="hardAlpha" operator="arithmetic" k2="-1" k3="1" />
            <feColorMatrix type="matrix" values="0 0 0 0 0.0627451 0 0 0 0 0.0941176 0 0 0 0 0.156863 0 0 0 0.18 0" />
            <feBlend mode="normal" in2="effect2_innerShadow_18057_2116" result="effect3_innerShadow_18057_2116" />
        </filter>
    </defs>
</svg>