<?xml version="1.0" encoding="UTF-8"?>
<svg width="52" height="52" viewBox="0 0 52 52" fill="none" xmlns="http://www.w3.org/2000/svg">
    <g filter="url(#filter0_dii_18057_1540)">
        <path
            d="M2 11C2 5.47715 6.47715 1 12 1H40C45.5229 1 50 5.47715 50 11V39C50 44.5229 45.5228 49 40 49H12C6.47715 49 2 44.5228 2 39V11Z"
            fill="white" />
        <path
            d="M2.5 11C2.5 5.75329 6.75329 1.5 12 1.5H40C45.2467 1.5 49.5 5.75329 49.5 11V39C49.5 44.2467 45.2467 48.5 40 48.5H12C6.75329 48.5 2.5 44.2467 2.5 39V11Z"
            stroke="#E4E7EC" />
        <path
            d="M26 28C22.6863 28 20 25.3137 20 22V16.4444C20 16.0306 20 15.8237 20.0603 15.658C20.1614 15.3802 20.3802 15.1614 20.658 15.0603C20.8237 15 21.0306 15 21.4444 15H30.5556C30.9694 15 31.1763 15 31.342 15.0603C31.6198 15.1614 31.8386 15.3802 31.9397 15.658C32 15.8237 32 16.0306 32 16.4444V22C32 25.3137 29.3137 28 26 28ZM26 28V31M32 17H34.5C34.9659 17 35.1989 17 35.3827 17.0761C35.6277 17.1776 35.8224 17.3723 35.9239 17.6173C36 17.8011 36 18.0341 36 18.5V19C36 19.93 36 20.395 35.8978 20.7765C35.6204 21.8117 34.8117 22.6204 33.7765 22.8978C33.395 23 32.93 23 32 23M20 17H17.5C17.0341 17 16.8011 17 16.6173 17.0761C16.3723 17.1776 16.1776 17.3723 16.0761 17.6173C16 17.8011 16 18.0341 16 18.5V19C16 19.93 16 20.395 16.1022 20.7765C16.3796 21.8117 17.1883 22.6204 18.2235 22.8978C18.605 23 19.07 23 20 23M21.4444 35H30.5556C30.801 35 31 34.801 31 34.5556C31 32.5919 29.4081 31 27.4444 31H24.5556C22.5919 31 21 32.5919 21 34.5556C21 34.801 21.199 35 21.4444 35Z"
            stroke="#344054" stroke-width="2" stroke-linecap="round" stroke-linejoin="round" />
    </g>
    <defs>
        <filter id="filter0_dii_18057_1540" x="0" y="0" width="52" height="52" filterUnits="userSpaceOnUse"
            color-interpolation-filters="sRGB">
            <feFlood flood-opacity="0" result="BackgroundImageFix" />
            <feColorMatrix in="SourceAlpha" type="matrix" values="0 0 0 0 0 0 0 0 0 0 0 0 0 0 0 0 0 0 127 0"
                result="hardAlpha" />
            <feOffset dy="1" />
            <feGaussianBlur stdDeviation="1" />
            <feComposite in2="hardAlpha" operator="out" />
            <feColorMatrix type="matrix" values="0 0 0 0 0.0627451 0 0 0 0 0.0941176 0 0 0 0 0.156863 0 0 0 0.05 0" />
            <feBlend mode="normal" in2="BackgroundImageFix" result="effect1_dropShadow_18057_1540" />
            <feBlend mode="normal" in="SourceGraphic" in2="effect1_dropShadow_18057_1540" result="shape" />
            <feColorMatrix in="SourceAlpha" type="matrix" values="0 0 0 0 0 0 0 0 0 0 0 0 0 0 0 0 0 0 127 0"
                result="hardAlpha" />
            <feOffset dy="-2" />
            <feComposite in2="hardAlpha" operator="arithmetic" k2="-1" k3="1" />
            <feColorMatrix type="matrix" values="0 0 0 0 0.0627451 0 0 0 0 0.0941176 0 0 0 0 0.156863 0 0 0 0.05 0" />
            <feBlend mode="normal" in2="shape" result="effect2_innerShadow_18057_1540" />
            <feColorMatrix in="SourceAlpha" type="matrix" values="0 0 0 0 0 0 0 0 0 0 0 0 0 0 0 0 0 0 127 0"
                result="hardAlpha" />
            <feMorphology radius="1" operator="erode" in="SourceAlpha" result="effect3_innerShadow_18057_1540" />
            <feOffset />
            <feComposite in2="hardAlpha" operator="arithmetic" k2="-1" k3="1" />
            <feColorMatrix type="matrix" values="0 0 0 0 0.0627451 0 0 0 0 0.0941176 0 0 0 0 0.156863 0 0 0 0.18 0" />
            <feBlend mode="normal" in2="effect2_innerShadow_18057_1540" result="effect3_innerShadow_18057_1540" />
        </filter>
    </defs>
</svg>