<?xml version="1.0" encoding="UTF-8"?>
<svg width="52" height="52" viewBox="0 0 52 52" fill="none" xmlns="http://www.w3.org/2000/svg">
    <g filter="url(#filter0_dii_18057_1556)">
        <path
            d="M2 11C2 5.47715 6.47715 1 12 1H40C45.5229 1 50 5.47715 50 11V39C50 44.5229 45.5228 49 40 49H12C6.47715 49 2 44.5228 2 39V11Z"
            fill="white" />
        <path
            d="M2.5 11C2.5 5.75329 6.75329 1.5 12 1.5H40C45.2467 1.5 49.5 5.75329 49.5 11V39C49.5 44.2467 45.2467 48.5 40 48.5H12C6.75329 48.5 2.5 44.2467 2.5 39V11Z"
            stroke="#E4E7EC" />
        <path
            d="M28 15H22.8C21.1198 15 20.2798 15 19.638 15.327C19.0735 15.6146 18.6146 16.0735 18.327 16.638C18 17.2798 18 18.1198 18 19.8V30.2C18 31.8802 18 32.7202 18.327 33.362C18.6146 33.9265 19.0735 34.3854 19.638 34.673C20.2798 35 21.1198 35 22.8 35H29.2C30.8802 35 31.7202 35 32.362 34.673C32.9265 34.3854 33.3854 33.9265 33.673 33.362C34 32.7202 34 31.8802 34 30.2V21M28 15L34 21M28 15V21H34M27.75 27V25.25C27.75 24.2835 26.9665 23.5 26 23.5C25.0335 23.5 24.25 24.2835 24.25 25.25V27M24.1 31H27.9C28.4601 31 28.7401 31 28.954 30.891C29.1422 30.7951 29.2951 30.6422 29.391 30.454C29.5 30.2401 29.5 29.9601 29.5 29.4V28.6C29.5 28.0399 29.5 27.7599 29.391 27.546C29.2951 27.3578 29.1422 27.2049 28.954 27.109C28.7401 27 28.4601 27 27.9 27H24.1C23.5399 27 23.2599 27 23.046 27.109C22.8578 27.2049 22.7049 27.3578 22.609 27.546C22.5 27.7599 22.5 28.0399 22.5 28.6V29.4C22.5 29.9601 22.5 30.2401 22.609 30.454C22.7049 30.6422 22.8578 30.7951 23.046 30.891C23.2599 31 23.5399 31 24.1 31Z"
            stroke="#344054" stroke-width="2" stroke-linecap="round" stroke-linejoin="round" />
    </g>
    <defs>
        <filter id="filter0_dii_18057_1556" x="0" y="0" width="52" height="52" filterUnits="userSpaceOnUse"
            color-interpolation-filters="sRGB">
            <feFlood flood-opacity="0" result="BackgroundImageFix" />
            <feColorMatrix in="SourceAlpha" type="matrix" values="0 0 0 0 0 0 0 0 0 0 0 0 0 0 0 0 0 0 127 0"
                result="hardAlpha" />
            <feOffset dy="1" />
            <feGaussianBlur stdDeviation="1" />
            <feComposite in2="hardAlpha" operator="out" />
            <feColorMatrix type="matrix" values="0 0 0 0 0.0627451 0 0 0 0 0.0941176 0 0 0 0 0.156863 0 0 0 0.05 0" />
            <feBlend mode="normal" in2="BackgroundImageFix" result="effect1_dropShadow_18057_1556" />
            <feBlend mode="normal" in="SourceGraphic" in2="effect1_dropShadow_18057_1556" result="shape" />
            <feColorMatrix in="SourceAlpha" type="matrix" values="0 0 0 0 0 0 0 0 0 0 0 0 0 0 0 0 0 0 127 0"
                result="hardAlpha" />
            <feOffset dy="-2" />
            <feComposite in2="hardAlpha" operator="arithmetic" k2="-1" k3="1" />
            <feColorMatrix type="matrix" values="0 0 0 0 0.0627451 0 0 0 0 0.0941176 0 0 0 0 0.156863 0 0 0 0.05 0" />
            <feBlend mode="normal" in2="shape" result="effect2_innerShadow_18057_1556" />
            <feColorMatrix in="SourceAlpha" type="matrix" values="0 0 0 0 0 0 0 0 0 0 0 0 0 0 0 0 0 0 127 0"
                result="hardAlpha" />
            <feMorphology radius="1" operator="erode" in="SourceAlpha" result="effect3_innerShadow_18057_1556" />
            <feOffset />
            <feComposite in2="hardAlpha" operator="arithmetic" k2="-1" k3="1" />
            <feColorMatrix type="matrix" values="0 0 0 0 0.0627451 0 0 0 0 0.0941176 0 0 0 0 0.156863 0 0 0 0.18 0" />
            <feBlend mode="normal" in2="effect2_innerShadow_18057_1556" result="effect3_innerShadow_18057_1556" />
        </filter>
    </defs>
</svg>