<?xml version="1.0" encoding="UTF-8"?>
<svg width="52" height="52" viewBox="0 0 52 52" fill="none" xmlns="http://www.w3.org/2000/svg">
    <g filter="url(#filter0_dii_18057_1532)">
        <path
            d="M2 11C2 5.47715 6.47715 1 12 1H40C45.5229 1 50 5.47715 50 11V39C50 44.5229 45.5228 49 40 49H12C6.47715 49 2 44.5228 2 39V11Z"
            fill="white" />
        <path
            d="M2.5 11C2.5 5.75329 6.75329 1.5 12 1.5H40C45.2467 1.5 49.5 5.75329 49.5 11V39C49.5 44.2467 45.2467 48.5 40 48.5H12C6.75329 48.5 2.5 44.2467 2.5 39V11Z"
            stroke="#E4E7EC" />
        <path
            d="M21.8687 28.4599L21 35L25.5884 32.247C25.7381 32.1572 25.8129 32.1123 25.8928 32.0947C25.9634 32.0792 26.0366 32.0792 26.1072 32.0947C26.1871 32.1123 26.2619 32.1572 26.4116 32.247L31 35L30.1319 28.4571M30.4259 17.2489C30.5803 17.6224 30.8768 17.9193 31.25 18.0743L32.5589 18.6165C32.9325 18.7712 33.2292 19.068 33.384 19.4415C33.5387 19.8151 33.5387 20.2348 33.384 20.6084L32.8422 21.9164C32.6874 22.2901 32.6872 22.7102 32.8427 23.0837L33.3835 24.3913C33.4602 24.5764 33.4997 24.7747 33.4997 24.975C33.4998 25.1752 33.4603 25.3736 33.3837 25.5586C33.3071 25.7436 33.1947 25.9118 33.0531 26.0534C32.9114 26.195 32.7433 26.3073 32.5582 26.3839L31.2503 26.9256C30.8768 27.0801 30.5799 27.3765 30.4249 27.7498L29.8827 29.0588C29.728 29.4323 29.4312 29.7291 29.0577 29.8838C28.6841 30.0386 28.2644 30.0386 27.8909 29.8838L26.583 29.342C26.2094 29.1877 25.7899 29.188 25.4166 29.3429L24.1077 29.8843C23.7343 30.0387 23.315 30.0386 22.9418 29.884C22.5685 29.7293 22.2719 29.4329 22.1171 29.0598L21.5748 27.7504C21.4204 27.3769 21.1239 27.08 20.7506 26.925L19.4417 26.3828C19.0684 26.2282 18.7717 25.9316 18.6169 25.5582C18.4621 25.1849 18.4619 24.7654 18.6163 24.3919L19.1581 23.0839C19.3124 22.7104 19.3121 22.2908 19.1572 21.9175L18.6162 20.6076C18.5395 20.4226 18.5 20.2243 18.5 20.024C18.5 19.8237 18.5394 19.6254 18.616 19.4403C18.6927 19.2553 18.805 19.0872 18.9467 18.9456C19.0883 18.804 19.2565 18.6917 19.4415 18.6151L20.7495 18.0733C21.1227 17.919 21.4194 17.6229 21.5745 17.25L22.1166 15.9411C22.2714 15.5676 22.5681 15.2708 22.9417 15.116C23.3152 14.9613 23.7349 14.9613 24.1084 15.116L25.4164 15.6578C25.7899 15.8122 26.2095 15.8119 26.5828 15.657L27.8922 15.1169C28.2657 14.9622 28.6853 14.9623 29.0588 15.117C29.4322 15.2717 29.729 15.5684 29.8837 15.9418L30.426 17.2511L30.4259 17.2489Z"
            stroke="#344054" stroke-width="2" stroke-linecap="round" stroke-linejoin="round" />
    </g>
    <defs>
        <filter id="filter0_dii_18057_1532" x="0" y="0" width="52" height="52" filterUnits="userSpaceOnUse"
            color-interpolation-filters="sRGB">
            <feFlood flood-opacity="0" result="BackgroundImageFix" />
            <feColorMatrix in="SourceAlpha" type="matrix" values="0 0 0 0 0 0 0 0 0 0 0 0 0 0 0 0 0 0 127 0"
                result="hardAlpha" />
            <feOffset dy="1" />
            <feGaussianBlur stdDeviation="1" />
            <feComposite in2="hardAlpha" operator="out" />
            <feColorMatrix type="matrix" values="0 0 0 0 0.0627451 0 0 0 0 0.0941176 0 0 0 0 0.156863 0 0 0 0.05 0" />
            <feBlend mode="normal" in2="BackgroundImageFix" result="effect1_dropShadow_18057_1532" />
            <feBlend mode="normal" in="SourceGraphic" in2="effect1_dropShadow_18057_1532" result="shape" />
            <feColorMatrix in="SourceAlpha" type="matrix" values="0 0 0 0 0 0 0 0 0 0 0 0 0 0 0 0 0 0 127 0"
                result="hardAlpha" />
            <feOffset dy="-2" />
            <feComposite in2="hardAlpha" operator="arithmetic" k2="-1" k3="1" />
            <feColorMatrix type="matrix" values="0 0 0 0 0.0627451 0 0 0 0 0.0941176 0 0 0 0 0.156863 0 0 0 0.05 0" />
            <feBlend mode="normal" in2="shape" result="effect2_innerShadow_18057_1532" />
            <feColorMatrix in="SourceAlpha" type="matrix" values="0 0 0 0 0 0 0 0 0 0 0 0 0 0 0 0 0 0 127 0"
                result="hardAlpha" />
            <feMorphology radius="1" operator="erode" in="SourceAlpha" result="effect3_innerShadow_18057_1532" />
            <feOffset />
            <feComposite in2="hardAlpha" operator="arithmetic" k2="-1" k3="1" />
            <feColorMatrix type="matrix" values="0 0 0 0 0.0627451 0 0 0 0 0.0941176 0 0 0 0 0.156863 0 0 0 0.18 0" />
            <feBlend mode="normal" in2="effect2_innerShadow_18057_1532" result="effect3_innerShadow_18057_1532" />
        </filter>
    </defs>
</svg>